<?xml version="1.0" standalone="no"?><!DOCTYPE svg PUBLIC "-//W3C//DTD SVG 1.1//EN" "http://www.w3.org/Graphics/SVG/1.1/DTD/svg11.dtd"><svg t="1740464686328" class="icon" viewBox="0 0 1024 1024" version="1.1" xmlns="http://www.w3.org/2000/svg" p-id="3054" xmlns:xlink="http://www.w3.org/1999/xlink" width="128" height="128"><path d="M173.942857 1024c-28.571429 0-52-21.942857-53.371428-50.057143l-23.771429-504h188.685714V466.285714c0.114286-12.8 0.342857-28.685714 3.428572-45.828571 3.657143-20.685714 14.285714-69.028571 28.228571-104.114286 4.342857-10.857143 10.057143-20.914286 15.2-29.714286 3.885714-6.742857 7.542857-13.142857 9.6-18.057142 0.914286-2.285714 1.142857-9.371429 1.371429-14.514286 0.228571-9.371429 0.571429-21.028571 4.342857-33.257143 6.057143-20.342857 14.857143-39.314286 28.571428-61.257143 4-7.428571 18.171429-41.257143 22.742858-54.057143 12.914286-36.571429 44-65.828571 90.057142-84.457143C521.714286 7.657143 562.057143 0 599.771429 0h2.057142c31.2 0.228571 55.2 6.514286 73.371429 19.2l1.371429 1.028571c4.8-0.8 9.714286-1.257143 14.628571-1.257142 18.514286 0 38.628571 5.485714 61.371429 16.571428C786.514286 52.342857 819.657143 77.257143 843.428571 104c33.371429 37.6 48.457143 77.942857 43.428572 116.685714-1.714286 13.485714-4.228571 50.171429-4 58.514286 2.285714 25.828571 1.714286 46.628571-1.942857 67.657143-2.171429 12.571429-7.085714 23.2-11.085715 31.657143-2.171429 4.685714-5.142857 11.085714-5.371428 13.6-0.457143 5.257143 0 12.685714 0.457143 20.457143 0.571429 10.171429 1.257143 21.828571 0.228571 33.371428-0.685714 7.771429-1.714286 16-2.971428 24h64.8l-23.771429 504c-1.257143 28.114286-24.685714 50.057143-53.371429 50.057143H173.942857z" fill="#25467A" p-id="3055"></path><path d="M601.485714 48c-58.171429-0.457143-139.085714 21.371429-157.257143 73.257143-4.914286 13.942857-21.828571 54.971429-26.857142 62.971428-12.342857 19.885714-19.085714 35.085714-23.657143 50.285715-4.342857 14.4 0.228571 33.942857-7.085715 52.114285-6.514286 15.885714-18.628571 32.228571-24.571428 47.428572-12.914286 32.685714-22.742857 79.085714-25.6 94.857143-4.685714 26.4-0.685714 51.2-5.257143 70.171428-3.885714 16.114286-18.285714 39.542857-21.028571 54.285715-2.971429 16-0.114286 32.228571 6.171428 48.228571 3.2 8.342857 2.057143 17.714286-3.885714 23.2-11.885714 11.085714-18.057143 24.914286-20.685714 39.771429-2.742857 15.657143-2.514286 101.828571-3.314286 115.885714-3.428571 57.028571 61.6 114.285714 107.771428 136s70.514286 2.628571 76.914286-24.571429c62.628571-264.8 122.857143-519.428571 186.171429-787.314285 6.971429-29.942857 0.228571-56.114286-57.828572-56.571429z" fill="#F5A816" p-id="3056"></path><path d="M731.428571 78.742857c52.228571 25.6 114.742857 81.371429 107.771429 136-1.828571 14.628571-5.028571 58.971429-4.228571 68.342857 2.171429 23.314286 1.371429 39.885714-1.371429 55.542857-2.628571 14.857143-15.428571 30.285714-16.914286 49.714286-1.371429 17.142857 2.171429 37.142857 0.8 53.371429-3.085714 34.971429-15.085714 80.914286-19.657143 96.228571-7.657143 25.714286-22.4 46.057143-26.742857 65.028572-3.771429 16.228571-1.371429 43.542857-5.485714 57.942857-4.457143 15.657143-14.285714 28.8-27.085714 40.342857-6.628571 5.942857-9.828571 14.971429-6.971429 22.514286 5.714286 15.2 4.914286 30.4 0.685714 44.8-4.571429 15.2-43.428571 92.228571-48.914285 105.028571-22.514286 52.571429-106.171429 74.628571-157.257143 73.257143s-64.228571-29.257143-57.828572-56.457143c62.628571-264.685714 122.857143-519.428571 186.171429-787.314286 7.2-29.6 24.914286-49.942857 77.028571-24.342857z" fill="#D98410" p-id="3057"></path><path d="M722.514286 76.685714c44.8 23.885714 97.828571 77.485714 90.171428 131.771429-2.057143 14.628571-6.171429 58.628571-5.714285 68 1.142857 23.085714 0 39.657143-2.857143 55.2-2.742857 14.857143-14.4 30.514286-16.228572 49.942857-1.714286 17.028571 0.8 36.8-0.914285 53.028571-3.657143 34.857143-15.542857 80.8-20 96.114286-7.428571 25.828571-20.914286 46.4-25.371429 65.371429-3.771429 16.228571-2.514286 43.314286-6.514286 57.714285-4.342857 15.657143-13.371429 29.028571-24.8 40.914286-5.942857 6.171429-9.028571 15.085714-6.742857 22.514286 4.571429 14.971429 3.428571 29.942857-0.8 44.457143-4.342857 15.2-40.685714 92.8-45.828571 105.828571-21.257143 52.8-95.085714 77.257143-139.657143 77.485714s-55.314286-27.085714-48.8-54.285714C531.085714 626.057143 591.314286 371.428571 654.628571 103.428571c6.971429-29.942857 22.971429-50.742857 67.885715-26.742857z" fill="#F29312" p-id="3058"></path><path d="M610.4 50.171429c-50.742857 1.257143-122.171429 25.371429-139.657143 77.485714-4.685714 13.942857-20.8 55.2-25.371428 63.314286-11.428571 20.114286-17.714286 35.428571-22.171429 50.628571-4.228571 14.514286-0.8 33.714286-7.771429 51.885714-6.171429 16-17.142857 32.571429-22.857142 47.771429-12.342857 32.8-22.285714 79.2-25.142858 94.971428-4.914286 26.4-2.057143 50.857143-6.628571 69.828572-3.885714 16.114286-17.142857 39.885714-20 54.514286-3.085714 16-1.028571 32 3.885714 47.657142 2.628571 8.114286 1.257143 17.6-4 23.2-10.742857 11.428571-16.457143 25.257143-19.2 40.114286-2.857143 15.657143-5.257143 101.257143-6.4 115.085714-4.685714 56.685714 50.4 111.657143 90.171429 131.771429s61.6 0.571429 68-26.628571c62.514286-264.685714 122.742857-519.314286 186.057143-787.314286 6.971429-29.828571 1.942857-55.657143-48.914286-54.285714z" fill="#F29312" p-id="3059"></path><path d="M468.839819 898.978424a8.457143 412.571429 13.309 1 0 189.950032-802.981768 8.457143 412.571429 13.309 1 0-189.950032 802.981768Z" fill="#D98410" p-id="3060"></path><path d="M793.828571 206.742857c-1.257143 5.485714-28.8-12.457143-66.285714-21.257143s-70.514286-5.257143-69.142857-10.742857 36.571429-17.828571 73.942857-9.028571 62.742857 35.542857 61.485714 41.028571zM785.828571 312.457143c-1.257143 5.485714-32.457143-13.257143-74.285714-23.2s-78.514286-7.2-77.257143-12.685714 40.114286-17.028571 81.942857-7.085715 70.857143 37.485714 69.6 42.971429zM759.657143 423.085714c-1.257143 5.485714-32.457143-13.257143-74.285714-23.2s-78.514286-7.2-77.257143-12.685714 40.114286-17.028571 81.942857-7.085714 70.857143 37.485714 69.6 42.971428zM607.657143 162.742857c-1.257143 5.485714-28.8-12.457143-66.285714-21.257143s-70.4-5.257143-69.142858-10.742857 36.457143-17.942857 73.828572-9.028571 62.971429 35.542857 61.6 41.028571zM599.657143 268.342857c-1.257143 5.485714-32.457143-13.257143-74.285714-23.2s-78.514286-7.2-77.257143-12.685714 40.114286-17.028571 81.942857-7.085714 70.971429 37.6 69.6 42.971428zM573.485714 379.085714c-1.257143 5.485714-32.457143-13.257143-74.285714-23.2s-78.514286-7.2-77.257143-12.685714 40.114286-17.028571 81.942857-7.085714 70.971429 37.485714 69.6 42.971428z" fill="#F5A816" p-id="3061"></path><path d="M850.057143 976H173.942857c-2.857143 0-5.257143-1.942857-5.371428-4.342857l-21.371429-453.714286h729.714286l-21.371429 453.714286c-0.228571 2.4-2.628571 4.342857-5.485714 4.342857z" fill="#FFE0B2" p-id="3062"></path><path d="M876.8 517.942857H760.8L744.571429 976h105.485714c2.857143 0 5.257143-1.942857 5.371428-4.342857l21.371429-453.714286z" fill="#FFCC80" p-id="3063"></path><path d="M437.6 839.885714c-35.314286 0-64-28.685714-64-64 0-7.085714 5.714286-12.8 12.8-12.8s12.8 5.714286 12.8 12.8c0 21.257143 17.142857 38.4 38.4 38.4s38.4-17.142857 38.4-38.4c0-7.085714 5.714286-12.8 12.8-12.8s12.8 5.714286 12.8 12.8c-0.114286 35.314286-28.685714 64-64 64zM271.2 673.485714c0 21.257143 17.257143 38.4 38.4 38.4 21.257143 0 38.4-17.257143 38.4-38.4s-17.142857-38.4-38.4-38.4-38.4 17.142857-38.4 38.4zM527.2 673.485714c0 21.257143 17.142857 38.4 38.4 38.4s38.4-17.142857 38.4-38.4-17.142857-38.4-38.4-38.4-38.4 17.257143-38.4 38.4z" fill="#25467A" p-id="3064"></path><path d="M258.4 737.485714h-51.2c-14.171429 0-25.6 11.428571-25.6 25.6 0 14.171429 11.428571 25.6 25.6 25.6h51.2c14.171429 0 25.6-11.428571 25.6-25.6 0-14.057143-11.428571-25.6-25.6-25.6z m409.6 0h-51.2c-14.171429 0-25.6 11.428571-25.6 25.6 0 14.171429 11.428571 25.6 25.6 25.6h51.2c14.171429 0 25.6-11.428571 25.6-25.6-0.114286-14.057143-11.542857-25.6-25.6-25.6z" fill="#FFA726" p-id="3065"></path></svg>